<svg width="950" height="733" viewBox="0 0 950 733" fill="none" xmlns="http://www.w3.org/2000/svg">
<circle cx="475" cy="258" r="347.032" transform="rotate(30 475 258)" stroke="url(#paint0_linear_1_201)"/>
<path d="M231.5 258C231.5 123.519 340.519 14.5 475 14.5C609.481 14.5 718.5 123.519 718.5 258C718.5 392.481 609.481 501.5 475 501.5C340.519 501.5 231.5 392.481 231.5 258Z" stroke="url(#paint1_linear_1_201)"/>
<line x1="475.5" y1="502" x2="475.5" y2="703" stroke="white"/>
<path d="M458.812 165.5V190.196H424.82H424.32V190.696V250.851H399.261V190.696V190.196H398.761H350.522C349.897 190.196 349.262 190.269 348.693 190.429C348.13 190.588 347.594 190.843 347.211 191.236C346.811 191.646 346.599 192.187 346.681 192.831C346.761 193.448 347.104 194.112 347.703 194.827L347.703 194.827L364.472 214.811C369.287 220.55 369.671 229.547 366.229 237.158C362.797 244.744 355.604 250.851 345.386 250.851H274.5V226.037H335.552C336.56 226.037 337.383 225.941 338 225.722C338.624 225.5 339.107 225.122 339.282 224.527C339.449 223.963 339.294 223.338 338.988 222.712C338.677 222.075 338.168 221.355 337.497 220.556L322.258 202.399C311.354 189.406 320.11 165.5 340.962 165.5H458.812Z" stroke="white"/>
<path d="M354.107 310.891L364.27 265.013H389.138L368.667 350.364H342.926L332.66 304.051H331.684L321.417 350.364H295.676L275.187 265.013H299.809L309.972 310.872L310.948 310.872L321.115 265.013H342.959L353.131 310.891L354.107 310.891Z" stroke="white"/>
<path d="M521.01 238.582L520.918 238.199H520.524H488.983H488.589L488.497 238.582L485.553 250.851H460.574L481.087 165.533L528.717 165.5L549.207 250.851H523.953L521.01 238.582ZM504.751 181.637H504.378L504.272 181.995L492.752 220.863L492.562 221.505H493.232H516.275H516.945L516.754 220.863L505.235 181.995L505.129 181.637H504.756H504.751Z" stroke="white"/>
<path d="M590.445 223.054L590.445 223.054C589.5 222.11 588.658 221.416 587.917 221.002C587.187 220.595 586.457 220.406 585.805 220.663C585.148 220.921 584.755 221.558 584.523 222.349C584.287 223.15 584.181 224.22 584.181 225.537V250.851H559.169L559.216 165.501L611.25 165.571C611.25 165.571 611.25 165.571 611.25 165.571C625.915 165.592 635.05 174.078 638.068 184.282C641.092 194.509 637.975 206.467 628.062 213.458L628.062 213.458C625.534 215.243 621.004 217.545 618.314 218.704L617.639 218.995L618.157 219.516L623.45 224.837C623.477 224.864 623.503 224.891 623.53 224.918C623.896 225.287 624.203 225.597 624.61 225.784C625.054 225.989 625.571 226.032 626.33 226.032H674.668V250.846H625.367H625.234C621.809 250.846 620.138 250.846 618.602 250.199C617.041 249.541 615.59 248.199 612.681 245.29L590.445 223.054ZM584.677 186.179H584.177V186.679V208.315V208.815H584.677H605.251C612.801 208.815 617.016 203.154 617.231 197.516C617.338 194.696 616.448 191.857 614.46 189.719C612.465 187.574 609.406 186.179 605.26 186.179H584.681H584.677Z" stroke="white"/>
<path d="M618.121 320.069L618.121 320.069L602.881 301.907L602.498 302.229L602.881 301.907C591.977 288.914 600.733 265.008 621.585 265.008H674.663V289.705H631.145C630.093 289.705 629.24 289.784 628.59 289.959C627.95 290.131 627.418 290.42 627.141 290.909C626.855 291.414 626.921 291.987 627.145 292.535C627.369 293.082 627.78 293.685 628.326 294.336L628.326 294.336L645.095 314.32C649.91 320.058 650.294 329.055 646.852 336.666C643.42 344.253 636.228 350.359 626.009 350.359H556.53H556.398C552.973 350.359 551.302 350.36 549.768 349.712C548.207 349.054 546.756 347.712 543.845 344.803C543.845 344.803 543.845 344.803 543.845 344.803L521.609 322.567C520.665 321.623 519.823 320.929 519.083 320.515C518.353 320.107 517.623 319.918 516.971 320.174C516.314 320.432 515.92 321.068 515.687 321.859C515.451 322.661 515.345 323.732 515.345 325.05V350.364H490.333L490.384 265.014L542.419 265.084C542.419 265.084 542.419 265.084 542.419 265.084C557.083 265.105 566.219 273.591 569.236 283.795C572.26 294.023 569.144 305.983 559.231 312.976L559.23 312.976C556.702 314.76 552.173 317.063 549.482 318.222L548.808 318.513L549.326 319.034L554.618 324.354C554.645 324.382 554.672 324.409 554.698 324.435C555.064 324.804 555.372 325.115 555.778 325.302C556.222 325.507 556.74 325.55 557.498 325.55H616.175C617.077 325.55 617.839 325.443 618.428 325.208C619.026 324.968 619.483 324.578 619.678 324.005C619.867 323.449 619.772 322.826 619.504 322.189C619.234 321.548 618.766 320.839 618.121 320.069ZM515.85 285.692H515.35V286.192V307.828V308.328H515.85H536.424C543.975 308.328 548.19 302.667 548.404 297.029C548.511 294.209 547.621 291.37 545.633 289.232C543.639 287.087 540.579 285.692 536.433 285.692H515.855H515.85Z" stroke="white"/>
<path d="M451.829 338.095L451.737 337.712H451.343H419.802H419.408L419.316 338.095L416.372 350.364H391.398L411.906 265.05L459.536 265.013L480.026 350.364H454.773L451.829 338.095ZM435.575 281.15H435.201L435.095 281.508L423.576 320.376L423.386 321.018H424.056H447.099H447.768L447.578 320.376L436.059 281.508L435.953 281.15H435.579H435.575Z" stroke="white"/>
<defs>
<linearGradient id="paint0_linear_1_201" x1="475" y1="-89.5319" x2="475" y2="605.532" gradientUnits="userSpaceOnUse">
<stop stop-color="#FAE60A"/>
<stop offset="0.942623" stop-color="white" stop-opacity="0"/>
</linearGradient>
<linearGradient id="paint1_linear_1_201" x1="475" y1="502" x2="475" y2="14" gradientUnits="userSpaceOnUse">
<stop stop-color="white"/>
<stop offset="0.942623" stop-color="white" stop-opacity="0"/>
</linearGradient>
</defs>
</svg>
